<!-- Created: 2026-09-16; Author: ckyasb.
     Purpose: Original butterfly cursor icon. Added: Blue / violet wings and a precise center hotspot. -->
<svg xmlns="http://www.w3.org/2000/svg" width="32" height="32" viewBox="0 0 32 32">
  <g stroke="#fff" stroke-width=".8" stroke-linejoin="round">
    <path fill="#7664d6" d="M15 15C7 2 1 3 3 11c1 4 6 6 11 6C2 14 5 27 11 24c3-1 4-5 5-8Z"/>
    <path fill="#569ee9" d="M17 15C25 2 31 3 29 11c-1 4-6 6-11 6 12-3 9 10 3 7-3-1-4-5-5-8Z"/>
  </g>
  <path d="m13 8 3 5 3-5M16 13v10" fill="none" stroke="#39365b" stroke-width="1.4" stroke-linecap="round"/>
  <path d="m6 8 5 5m15-5-5 5" stroke="#d6f0ff" stroke-width="1.5" stroke-linecap="round"/>
</svg>
